<?xml version="1.0" encoding="utf-8"?>
<!-- Generator: Adobe Illustrator 26.5.0, SVG Export Plug-In . SVG Version: 6.00 Build 0)  -->
<svg version="1.1" id="Layer_1" xmlns="http://www.w3.org/2000/svg" xmlns:xlink="http://www.w3.org/1999/xlink" x="0px" y="0px"
	 viewBox="0 0 122.62 130.48" style="enable-background:new 0 0 122.62 130.48;" xml:space="preserve">
<style type="text/css">
	.st0{fill:#303D33;}
	.st1{fill:url(#SVGID_1_);}
	.st2{fill:url(#SVGID_00000168823322671623339240000012571949206446751146_);}
	.st3{fill:url(#SVGID_00000026151790198493490760000003156109149260985020_);}
</style>
<polygon class="st0" points="22.94,3.03 2.2,18.1 7.09,49.21 6.11,73.27 2.2,89.51 13.55,95.97 21.96,108.88 32.13,120.81 
	49.35,127.14 68.13,128.64 82.61,125.12 93.18,118.47 102.18,106.34 106.68,98.97 115.09,91.86 120.37,89.51 115.87,59.18 
	117.24,35.9 120.37,17.71 108.63,10.86 103.55,6.16 100.22,1.66 89.07,6.95 80.66,7.14 68.13,6.36 61.31,4.99 50.92,7.73 
	41.72,7.92 "/>
<g>
	<g>
		<linearGradient id="SVGID_1_" gradientUnits="userSpaceOnUse" x1="369.8449" y1="-63.8862" x2="-311.6075" y2="209.0276">
			<stop  offset="0" style="stop-color:#F9DF7B"/>
			<stop  offset="0.2038" style="stop-color:#B57E10"/>
			<stop  offset="0.229" style="stop-color:#BA8518"/>
			<stop  offset="0.2671" style="stop-color:#C7982C"/>
			<stop  offset="0.3134" style="stop-color:#DDB74E"/>
			<stop  offset="0.3633" style="stop-color:#F9DF7B"/>
			<stop  offset="0.5456" style="stop-color:#FFF3A6"/>
			<stop  offset="0.6896" style="stop-color:#F9DF7B"/>
			<stop  offset="0.8428" style="stop-color:#B57E10"/>
			<stop  offset="0.9493" style="stop-color:#E5C35C"/>
			<stop  offset="1" style="stop-color:#F9DF7B"/>
		</linearGradient>
		<path class="st1" d="M23.61,0.3c-0.45-0.29-1.02-0.38-1.55-0.23c-0.53,0.15-0.95,0.51-1.15,0.99c-0.04,0.09-4.35,9.71-19.7,14.62
			c-0.89,0.28-1.39,1.16-1.15,2.01c0.11,0.39,11.02,39.81,0.03,71.67c-0.17,0.49-0.09,1.02,0.22,1.45c0.31,0.43,0.81,0.69,1.36,0.73
			c0.41,0.03,10.35,0.97,17.46,15.82c0.26,0.62,2.68,6.11,8.85,11.61c5.88,5.24,16.42,11.48,33.27,11.51c0,0,0.01,0,0.01,0
			c0.02,0,0.03,0,0.04,0c0.01,0,0.02,0,0.04,0l0.01,0c16.86-0.02,27.4-6.26,33.27-11.51c6.17-5.5,8.59-10.99,8.85-11.61
			c7.11-14.86,17.05-15.79,17.46-15.82c0.55-0.04,1.05-0.3,1.36-0.73c0.31-0.43,0.39-0.96,0.22-1.45
			c-11-31.86-0.08-71.28,0.03-71.67c0.24-0.85-0.26-1.72-1.15-2.01c-15.35-4.91-19.66-14.53-19.7-14.62
			c-0.2-0.48-0.63-0.84-1.15-0.99c-0.53-0.15-1.1-0.06-1.55,0.23C82.76,10.82,63.82,3.54,61.8,3.23c-0.16-0.04-0.32-0.06-0.49-0.05
			c-0.17,0-0.33,0.02-0.49,0.05C58.79,3.54,39.86,10.82,23.61,0.3z M99.34,4.11c2.01,3.23,7.43,10,19.34,14.22
			c-1.92,7.5-9.5,41.04-0.17,70.28c-3.91,1.03-12.24,4.68-18.33,17.44c-0.01,0.03-0.03,0.06-0.04,0.09
			c-0.09,0.21-8.88,20.99-38.84,21c-29.95-0.02-38.75-20.79-38.84-21c-0.01-0.03-0.02-0.06-0.04-0.09
			C16.34,93.29,8.01,89.64,4.1,88.61c9.33-29.24,1.75-62.78-0.17-70.28C15.85,14.11,21.26,7.34,23.27,4.11
			C40.09,14.07,58.39,7,61.31,6.55C64.22,7,82.52,14.07,99.34,4.11z"/>
		
			<linearGradient id="SVGID_00000036245817793102479150000005844425783544439432_" gradientUnits="userSpaceOnUse" x1="163.9587" y1="57.8715" x2="-53.785" y2="145.0753">
			<stop  offset="0" style="stop-color:#F9DF7B"/>
			<stop  offset="0.2038" style="stop-color:#B57E10"/>
			<stop  offset="0.229" style="stop-color:#BA8518"/>
			<stop  offset="0.2671" style="stop-color:#C7982C"/>
			<stop  offset="0.3134" style="stop-color:#DDB74E"/>
			<stop  offset="0.3633" style="stop-color:#F9DF7B"/>
			<stop  offset="0.5456" style="stop-color:#FFF3A6"/>
			<stop  offset="0.6896" style="stop-color:#F9DF7B"/>
			<stop  offset="0.8428" style="stop-color:#B57E10"/>
			<stop  offset="0.9493" style="stop-color:#E5C35C"/>
			<stop  offset="1" style="stop-color:#F9DF7B"/>
		</linearGradient>
		<path style="fill:url(#SVGID_00000036245817793102479150000005844425783544439432_);" d="M122.21,98.97
			c0,0.01-0.01,0.02-0.01,0.03c-0.06,0.03-0.13,0.05-0.19,0.08C122.08,99.04,122.14,99,122.21,98.97z M0.42,99
			c0-0.01,0-0.02-0.01-0.03c0.07,0.04,0.13,0.07,0.2,0.11C0.54,99.05,0.48,99.03,0.42,99z"/>
	</g>
	<g>
		
			<linearGradient id="SVGID_00000080891229485509841990000003697193820455305121_" gradientUnits="userSpaceOnUse" x1="373.8261" y1="-54.654" x2="-307.6263" y2="218.2597">
			<stop  offset="0" style="stop-color:#F9DF7B"/>
			<stop  offset="0.2038" style="stop-color:#B57E10"/>
			<stop  offset="0.229" style="stop-color:#BA8518"/>
			<stop  offset="0.2671" style="stop-color:#C7982C"/>
			<stop  offset="0.3134" style="stop-color:#DDB74E"/>
			<stop  offset="0.3633" style="stop-color:#F9DF7B"/>
			<stop  offset="0.5456" style="stop-color:#FFF3A6"/>
			<stop  offset="0.6896" style="stop-color:#F9DF7B"/>
			<stop  offset="0.8428" style="stop-color:#B57E10"/>
			<stop  offset="0.9493" style="stop-color:#E5C35C"/>
			<stop  offset="1" style="stop-color:#F9DF7B"/>
		</linearGradient>
		<path style="fill:url(#SVGID_00000080891229485509841990000003697193820455305121_);" d="M63.61,98.85c3.07,0,5.04-0.56,5.88-1.69
			c0.85-1.13,1.27-3.04,1.27-5.74V73.16h-6.02v-2.07h27.1v2.07h-3.67v26.54h-1.41c-1.13-1.57-2.73-2.35-4.8-2.35
			c-0.88,0-3.5,0.56-7.86,1.69c-4.36,1.13-8.08,1.69-11.15,1.69c-10.23,0-18.15-2.76-23.76-8.28c-5.62-5.52-8.42-13.82-8.42-24.89
			c0-11.07,2.93-19.62,8.8-25.65c5.87-6.02,13.75-9.03,23.67-9.03c3.83,0,7.67,0.49,11.53,1.46c3.86,0.97,6.1,1.46,6.73,1.46
			c0.63,0,1.1-0.14,1.41-0.42c0.31-0.28,0.66-0.77,1.04-1.46h1.04l0.75,20.42h-1.69c-3.07-6.08-6.16-10.87-9.27-14.35
			c-3.11-3.48-6.57-5.22-10.4-5.22c-9.6,0-14.4,9.38-14.4,28.14v7.43c0,9.41,1.18,16.52,3.53,21.32
			C55.85,96.45,59.22,98.85,63.61,98.85z"/>
	</g>
</g>
</svg>
